<svg xmlns="http://www.w3.org/2000/svg" viewBox="0 0 50 50" width="50" height="50">
  <path d="M25 50C11.19 50 0 38.81 0 25S11.19 0 25 0s25 11.19 25 25-11.19 25-25 25zm0-47c-12.12 0-22 9.88-22 22s9.88 22 22 22 22-9.88 22-22-9.88-22-22-22zm-.28 7.5c-.56 0-1.04.44-1.04.98s.44.98 1.04.98c1.12 0 2.01.92 2.01 2.05 0 1.13-.88 2.06-1.99 2.06-.5 0-.95-.19-1.3-.52-1.56-.94-2.42-2.46-2.42-4.04 0-.91.43-1.83 1.19-2.39.61-.46 1.35-.75 2.12-.75 1.34 0 2.42.74 2.92 1.88l1.32-.97c-.72-1.31-1.88-2.34-3.25-2.75-.59-.19-1.21-.29-1.84-.29zm-.44 7.23c-.47 0-.82.39-.82.86v9.06h-2.05V16.6c0-.47.39-.86.86-.86h1.47c.47 0 .86.39.86.86v9.05h2.06v-9.05c0-.47-.39-.86-.86-.86h-1.47z" fill="#47A248"/>
</svg>
